<?xml version="1.0" standalone="no"?>
<!DOCTYPE svg PUBLIC "-//W3C//DTD SVG 20010904//EN"
 "http://www.w3.org/TR/2001/REC-SVG-20010904/DTD/svg10.dtd">
<svg version="1.0" xmlns="http://www.w3.org/2000/svg"
 width="683.000000pt" height="683.000000pt" viewBox="0 0 683.000000 683.000000"
 preserveAspectRatio="xMidYMid meet">
<metadata>
Created by potrace 1.14, written by Peter Selinger 2001-2017
</metadata>
<g transform="translate(0.000000,683.000000) scale(0.100000,-0.100000)"
fill="#000000" stroke="none">
<path d="M4898 5325 c-2 -2 -42 -6 -90 -10 -48 -3 -98 -8 -110 -10 -13 -2 -41
-6 -63 -10 -326 -47 -668 -191 -910 -382 -73 -58 -228 -210 -281 -275 l-30
-38 -139 135 c-285 275 -507 410 -834 505 -74 22 -91 26 -146 35 -16 3 -37 8
-45 10 -94 25 -375 36 -540 21 -370 -33 -713 -170 -992 -394 -107 -87 -291
-282 -370 -393 -150 -211 -286 -541 -314 -761 -3 -24 -7 -49 -9 -56 -17 -52
-25 -365 -12 -487 36 -346 159 -673 351 -929 74 -98 222 -256 330 -350 129
-113 317 -223 499 -290 105 -39 296 -91 374 -102 26 -3 56 -8 65 -9 98 -19
356 -25 513 -13 204 17 411 66 607 144 195 77 333 164 562 354 l158 132 102
-99 c196 -192 399 -320 656 -416 94 -35 304 -90 390 -102 25 -3 56 -8 70 -10
173 -26 384 -22 576 11 67 11 230 57 317 88 637 231 1124 824 1223 1491 3 22
8 51 11 65 12 62 10 381 -3 475 -43 319 -145 584 -323 845 -67 98 -124 165
-235 275 -86 85 -282 245 -300 245 -3 0 -31 17 -63 37 -137 87 -372 180 -563
221 -123 27 -153 31 -285 38 -60 3 -118 7 -127 8 -9 2 -18 3 -20 1z m-2728
-409 c71 -7 87 -11 174 -37 105 -33 280 -127 370 -199 116 -92 211 -186 425
-420 47 -51 47 -47 2 -168 -35 -94 -78 -254 -87 -322 -3 -25 -8 -47 -9 -50
-17 -28 -25 -367 -12 -500 21 -226 86 -463 180 -658 l41 -85 -30 -25 c-50 -42
-68 -56 -114 -92 -25 -19 -47 -37 -50 -40 -14 -15 -196 -144 -272 -193 -186
-120 -338 -175 -583 -214 -27 -4 -169 -7 -315 -7 -297 0 -332 5 -493 74 -202
87 -418 240 -607 430 -259 259 -378 468 -385 678 -3 85 -1 95 20 120 l23 27
339 1 c236 1 345 5 360 13 30 15 39 59 37 171 -2 133 -1 128 -29 146 -22 14
-66 16 -354 16 -305 0 -331 1 -360 19 -17 10 -32 27 -32 36 -6 84 38 252 100
385 35 77 124 224 164 274 8 10 39 48 68 84 117 145 269 280 421 374 67 41
215 109 266 121 9 3 44 11 77 20 33 8 94 18 135 21 41 3 76 7 77 8 4 4 405 -3
453 -8z m3025 -51 c637 -125 1129 -656 1193 -1285 18 -183 5 -360 -42 -555
-10 -43 -56 -165 -88 -235 -138 -301 -398 -564 -701 -707 -123 -59 -233 -93
-412 -129 -74 -14 -296 -14 -401 2 -632 92 -1064 454 -1229 1028 -23 82 -29
105 -40 176 -46 289 -9 600 104 864 206 483 624 780 1201 855 94 12 322 5 415
-14z"/>
<path d="M1745 3784 c-27 -7 -53 -13 -56 -14 -23 -1 -130 -87 -158 -125 -88
-123 -98 -295 -23 -425 94 -165 312 -233 484 -153 76 36 118 71 159 129 157
229 26 546 -247 593 -74 12 -97 12 -159 -5z"/>
<path d="M4835 3786 c-121 -29 -223 -114 -267 -224 -18 -46 -22 -76 -22 -153
0 -88 2 -101 32 -160 37 -74 62 -105 121 -147 114 -83 290 -90 417 -17 170 98
236 323 147 498 -47 94 -156 183 -246 203 -49 11 -135 11 -182 0z"/>
</g>
</svg>
